# xmcd
#
# Track frame offsets: 
#        150
#        11015
#        25626
#        35774
#        53716
#        67052
#        80300
#        90854
#        108684
#        118186
#        130846
#        146983
#        152723
#        168118
#
# Disc length: 2393 seconds
#
# Revision: 0
# Processed by: cddbd v1.5.2PL0 Copyright (c) Steve Scherf et al.
# Submitted via: ExactAudioCopy v0.99pb4
#
DISCID=b609570e
DTITLE=Mountain Sprout - PornoBilly
DYEAR=2007
DGENRE=Bluegrass
TTITLE0=Marijuana song
TTITLE1=Waiting for the Strippers
TTITLE2=Wherres My Beer
TTITLE3=Are You Drinking With Me Jesus
TTITLE4=Look What the Bitch Went and Done
TTITLE5=Suck You Dry
TTITLE6=Douche That Thing For Me
TTITLE7=How Long Little Darlin'
TTITLE8=Virgins
TTITLE9=Hard on For You
TTITLE10=Crack Rock Mountain
TTITLE11=Dang Girl
TTITLE12=Desperate Times
TTITLE13=57 Chevy
EXTD=
EXTT0=
EXTT1=
EXTT2=
EXTT3=
EXTT4=
EXTT5=
EXTT6=
EXTT7=
EXTT8=
EXTT9=
EXTT10=
EXTT11=
EXTT12=
EXTT13=
PLAYORDER=
